<mxfile host="app.diagrams.net" modified="2023-08-03T01:55:53.868Z" agent="Mozilla/5.0 (Windows NT 10.0; Win64; x64) AppleWebKit/537.36 (KHTML, like Gecko) Chrome/115.0.0.0 Safari/537.36" etag="OnsIGQ2xISMHNBJUdaPd" version="21.6.6" type="device">
  <diagram name="Page-1" id="HkjdCPG2xDWBdRoAj7fW">
    <mxGraphModel dx="2450" dy="811" grid="1" gridSize="10" guides="1" tooltips="1" connect="1" arrows="1" fold="1" page="1" pageScale="1" pageWidth="850" pageHeight="1100" math="0" shadow="0">
      <root>
        <mxCell id="0" />
        <mxCell id="1" parent="0" />
        <mxCell id="JO0oFXYE_5X4QB5dY664-1" style="edgeStyle=orthogonalEdgeStyle;rounded=0;orthogonalLoop=1;jettySize=auto;html=1;fontSize=16;" parent="1" source="JO0oFXYE_5X4QB5dY664-2" edge="1">
          <mxGeometry relative="1" as="geometry">
            <mxPoint x="165" y="150" as="targetPoint" />
          </mxGeometry>
        </mxCell>
        <mxCell id="JO0oFXYE_5X4QB5dY664-2" value="Start" style="ellipse;whiteSpace=wrap;html=1;fontSize=16;" parent="1" vertex="1">
          <mxGeometry x="120" y="70" width="90" height="50" as="geometry" />
        </mxCell>
        <mxCell id="JO0oFXYE_5X4QB5dY664-3" value="" style="edgeStyle=orthogonalEdgeStyle;rounded=0;orthogonalLoop=1;jettySize=auto;html=1;fontSize=16;" parent="1" source="JO0oFXYE_5X4QB5dY664-4" target="JO0oFXYE_5X4QB5dY664-6" edge="1">
          <mxGeometry relative="1" as="geometry" />
        </mxCell>
        <mxCell id="JO0oFXYE_5X4QB5dY664-4" value="Logged In" style="rounded=1;whiteSpace=wrap;html=1;fontSize=16;" parent="1" vertex="1">
          <mxGeometry x="120" y="150" width="90" height="50" as="geometry" />
        </mxCell>
        <mxCell id="JO0oFXYE_5X4QB5dY664-5" value="" style="edgeStyle=orthogonalEdgeStyle;rounded=0;orthogonalLoop=1;jettySize=auto;html=1;fontSize=16;" parent="1" source="JO0oFXYE_5X4QB5dY664-6" target="JO0oFXYE_5X4QB5dY664-8" edge="1">
          <mxGeometry relative="1" as="geometry" />
        </mxCell>
        <mxCell id="JO0oFXYE_5X4QB5dY664-6" value="Go to personal profile" style="whiteSpace=wrap;html=1;rounded=1;fontSize=16;" parent="1" vertex="1">
          <mxGeometry x="113.13" y="230" width="103.75" height="60" as="geometry" />
        </mxCell>
        <mxCell id="JO0oFXYE_5X4QB5dY664-7" style="edgeStyle=orthogonalEdgeStyle;rounded=0;orthogonalLoop=1;jettySize=auto;html=1;fontSize=16;" parent="1" source="JO0oFXYE_5X4QB5dY664-8" edge="1">
          <mxGeometry relative="1" as="geometry">
            <mxPoint x="165" y="420" as="targetPoint" />
          </mxGeometry>
        </mxCell>
        <mxCell id="JO0oFXYE_5X4QB5dY664-8" value="Click on Demonstarte skills" style="whiteSpace=wrap;html=1;rounded=1;fontSize=16;" parent="1" vertex="1">
          <mxGeometry x="116.25999999999999" y="320" width="97.5" height="70" as="geometry" />
        </mxCell>
        <mxCell id="JO0oFXYE_5X4QB5dY664-15" value="" style="edgeStyle=orthogonalEdgeStyle;rounded=0;orthogonalLoop=1;jettySize=auto;html=1;fontSize=16;" parent="1" source="JO0oFXYE_5X4QB5dY664-9" target="JO0oFXYE_5X4QB5dY664-14" edge="1">
          <mxGeometry relative="1" as="geometry" />
        </mxCell>
        <mxCell id="JO0oFXYE_5X4QB5dY664-9" value="Skill Selection from filters" style="rounded=1;whiteSpace=wrap;html=1;fontSize=16;" parent="1" vertex="1">
          <mxGeometry x="105" y="420" width="120" height="60" as="geometry" />
        </mxCell>
        <mxCell id="JO0oFXYE_5X4QB5dY664-10" value="1" style="text;html=1;align=center;verticalAlign=middle;resizable=0;points=[];autosize=1;strokeColor=none;fillColor=none;fontSize=16;" parent="1" vertex="1">
          <mxGeometry x="175" y="120" width="30" height="30" as="geometry" />
        </mxCell>
        <mxCell id="JO0oFXYE_5X4QB5dY664-11" value="2" style="text;html=1;align=center;verticalAlign=middle;resizable=0;points=[];autosize=1;strokeColor=none;fillColor=none;fontSize=16;" parent="1" vertex="1">
          <mxGeometry x="175" y="200" width="30" height="30" as="geometry" />
        </mxCell>
        <mxCell id="JO0oFXYE_5X4QB5dY664-12" value="3" style="text;html=1;align=center;verticalAlign=middle;resizable=0;points=[];autosize=1;strokeColor=none;fillColor=none;fontSize=16;" parent="1" vertex="1">
          <mxGeometry x="175" y="290" width="30" height="30" as="geometry" />
        </mxCell>
        <mxCell id="JO0oFXYE_5X4QB5dY664-13" value="4" style="text;html=1;align=center;verticalAlign=middle;resizable=0;points=[];autosize=1;strokeColor=none;fillColor=none;fontSize=16;" parent="1" vertex="1">
          <mxGeometry x="175" y="390" width="30" height="30" as="geometry" />
        </mxCell>
        <mxCell id="JO0oFXYE_5X4QB5dY664-17" style="edgeStyle=orthogonalEdgeStyle;rounded=0;orthogonalLoop=1;jettySize=auto;html=1;exitX=0.5;exitY=1;exitDx=0;exitDy=0;fontSize=16;" parent="1" source="JO0oFXYE_5X4QB5dY664-14" edge="1">
          <mxGeometry relative="1" as="geometry">
            <mxPoint x="280" y="640" as="targetPoint" />
          </mxGeometry>
        </mxCell>
        <mxCell id="JO0oFXYE_5X4QB5dY664-18" style="edgeStyle=orthogonalEdgeStyle;rounded=0;orthogonalLoop=1;jettySize=auto;html=1;exitX=0.5;exitY=1;exitDx=0;exitDy=0;fontSize=16;" parent="1" source="JO0oFXYE_5X4QB5dY664-14" edge="1">
          <mxGeometry relative="1" as="geometry">
            <mxPoint x="60" y="640" as="targetPoint" />
          </mxGeometry>
        </mxCell>
        <mxCell id="JO0oFXYE_5X4QB5dY664-14" value="Skill Selected" style="rounded=1;whiteSpace=wrap;html=1;fontSize=16;" parent="1" vertex="1">
          <mxGeometry x="111.27000000000001" y="518" width="107.49" height="42" as="geometry" />
        </mxCell>
        <mxCell id="JO0oFXYE_5X4QB5dY664-16" value="5" style="text;html=1;align=center;verticalAlign=middle;resizable=0;points=[];autosize=1;strokeColor=none;fillColor=none;fontSize=16;" parent="1" vertex="1">
          <mxGeometry x="185" y="488" width="30" height="30" as="geometry" />
        </mxCell>
        <mxCell id="JO0oFXYE_5X4QB5dY664-26" value="" style="edgeStyle=orthogonalEdgeStyle;rounded=0;orthogonalLoop=1;jettySize=auto;html=1;fontSize=16;" parent="1" source="JO0oFXYE_5X4QB5dY664-19" target="JO0oFXYE_5X4QB5dY664-25" edge="1">
          <mxGeometry relative="1" as="geometry" />
        </mxCell>
        <mxCell id="JO0oFXYE_5X4QB5dY664-19" value="Start" style="rounded=1;whiteSpace=wrap;html=1;fontSize=16;" parent="1" vertex="1">
          <mxGeometry x="225" y="640" width="115" height="40" as="geometry" />
        </mxCell>
        <mxCell id="JO0oFXYE_5X4QB5dY664-22" value="" style="edgeStyle=orthogonalEdgeStyle;rounded=0;orthogonalLoop=1;jettySize=auto;html=1;fontSize=16;" parent="1" source="JO0oFXYE_5X4QB5dY664-20" target="JO0oFXYE_5X4QB5dY664-21" edge="1">
          <mxGeometry relative="1" as="geometry" />
        </mxCell>
        <mxCell id="JO0oFXYE_5X4QB5dY664-20" value="Practice" style="rounded=1;whiteSpace=wrap;html=1;fontSize=16;" parent="1" vertex="1">
          <mxGeometry x="5" y="640" width="115" height="40" as="geometry" />
        </mxCell>
        <mxCell id="JO0oFXYE_5X4QB5dY664-23" style="edgeStyle=orthogonalEdgeStyle;rounded=0;orthogonalLoop=1;jettySize=auto;html=1;exitX=1;exitY=0.5;exitDx=0;exitDy=0;entryX=0.5;entryY=1;entryDx=0;entryDy=0;fontSize=16;" parent="1" source="JO0oFXYE_5X4QB5dY664-21" target="JO0oFXYE_5X4QB5dY664-25" edge="1">
          <mxGeometry relative="1" as="geometry" />
        </mxCell>
        <mxCell id="JO0oFXYE_5X4QB5dY664-24" style="edgeStyle=orthogonalEdgeStyle;rounded=0;orthogonalLoop=1;jettySize=auto;html=1;exitX=0;exitY=0.5;exitDx=0;exitDy=0;entryX=0;entryY=0.5;entryDx=0;entryDy=0;fontSize=16;" parent="1" source="JO0oFXYE_5X4QB5dY664-21" target="JO0oFXYE_5X4QB5dY664-14" edge="1">
          <mxGeometry relative="1" as="geometry">
            <Array as="points">
              <mxPoint x="-30" y="780" />
              <mxPoint x="-30" y="539" />
            </Array>
          </mxGeometry>
        </mxCell>
        <mxCell id="JO0oFXYE_5X4QB5dY664-21" value="Start Quiz" style="rhombus;whiteSpace=wrap;html=1;rounded=1;fontSize=16;" parent="1" vertex="1">
          <mxGeometry x="22.5" y="740" width="80" height="80" as="geometry" />
        </mxCell>
        <mxCell id="JO0oFXYE_5X4QB5dY664-28" value="" style="edgeStyle=orthogonalEdgeStyle;rounded=0;orthogonalLoop=1;jettySize=auto;html=1;fontSize=16;" parent="1" source="JO0oFXYE_5X4QB5dY664-25" target="JO0oFXYE_5X4QB5dY664-27" edge="1">
          <mxGeometry relative="1" as="geometry" />
        </mxCell>
        <mxCell id="JO0oFXYE_5X4QB5dY664-25" value="Perform Test" style="whiteSpace=wrap;html=1;rounded=1;fontSize=16;" parent="1" vertex="1">
          <mxGeometry x="380" y="630" width="90" height="60" as="geometry" />
        </mxCell>
        <mxCell id="JO0oFXYE_5X4QB5dY664-30" value="" style="edgeStyle=orthogonalEdgeStyle;rounded=0;orthogonalLoop=1;jettySize=auto;html=1;fontSize=16;" parent="1" source="JO0oFXYE_5X4QB5dY664-27" target="JO0oFXYE_5X4QB5dY664-29" edge="1">
          <mxGeometry relative="1" as="geometry" />
        </mxCell>
        <mxCell id="JO0oFXYE_5X4QB5dY664-27" value="View Results" style="whiteSpace=wrap;html=1;rounded=1;fontSize=16;" parent="1" vertex="1">
          <mxGeometry x="500" y="630" width="90" height="60" as="geometry" />
        </mxCell>
        <mxCell id="JO0oFXYE_5X4QB5dY664-32" value="" style="edgeStyle=orthogonalEdgeStyle;rounded=0;orthogonalLoop=1;jettySize=auto;html=1;fontSize=16;" parent="1" source="JO0oFXYE_5X4QB5dY664-29" target="JO0oFXYE_5X4QB5dY664-31" edge="1">
          <mxGeometry relative="1" as="geometry" />
        </mxCell>
        <mxCell id="JO0oFXYE_5X4QB5dY664-36" value="" style="edgeStyle=orthogonalEdgeStyle;rounded=0;orthogonalLoop=1;jettySize=auto;html=1;fontSize=16;" parent="1" source="JO0oFXYE_5X4QB5dY664-29" target="JO0oFXYE_5X4QB5dY664-35" edge="1">
          <mxGeometry relative="1" as="geometry" />
        </mxCell>
        <mxCell id="JO0oFXYE_5X4QB5dY664-29" value="Susccessful" style="rhombus;whiteSpace=wrap;html=1;rounded=1;fontSize=16;" parent="1" vertex="1">
          <mxGeometry x="620" y="605" width="110" height="110" as="geometry" />
        </mxCell>
        <mxCell id="JO0oFXYE_5X4QB5dY664-41" style="edgeStyle=orthogonalEdgeStyle;rounded=0;orthogonalLoop=1;jettySize=auto;html=1;fontSize=16;" parent="1" source="JO0oFXYE_5X4QB5dY664-31" edge="1">
          <mxGeometry relative="1" as="geometry">
            <mxPoint x="770" y="630" as="targetPoint" />
          </mxGeometry>
        </mxCell>
        <mxCell id="JO0oFXYE_5X4QB5dY664-31" value="Fail" style="whiteSpace=wrap;html=1;rounded=1;fontSize=16;" parent="1" vertex="1">
          <mxGeometry x="620" y="520" width="110" height="40" as="geometry" />
        </mxCell>
        <mxCell id="JO0oFXYE_5X4QB5dY664-40" value="" style="edgeStyle=orthogonalEdgeStyle;rounded=0;orthogonalLoop=1;jettySize=auto;html=1;fontSize=16;" parent="1" source="JO0oFXYE_5X4QB5dY664-35" target="JO0oFXYE_5X4QB5dY664-39" edge="1">
          <mxGeometry relative="1" as="geometry" />
        </mxCell>
        <mxCell id="JO0oFXYE_5X4QB5dY664-35" value="Pass" style="whiteSpace=wrap;html=1;rounded=1;fontSize=16;" parent="1" vertex="1">
          <mxGeometry x="630" y="768" width="90" height="40" as="geometry" />
        </mxCell>
        <mxCell id="JO0oFXYE_5X4QB5dY664-43" style="edgeStyle=orthogonalEdgeStyle;rounded=0;orthogonalLoop=1;jettySize=auto;html=1;exitX=0.5;exitY=0;exitDx=0;exitDy=0;entryX=0.65;entryY=1.067;entryDx=0;entryDy=0;entryPerimeter=0;fontSize=16;" parent="1" source="JO0oFXYE_5X4QB5dY664-39" target="JO0oFXYE_5X4QB5dY664-42" edge="1">
          <mxGeometry relative="1" as="geometry" />
        </mxCell>
        <mxCell id="JO0oFXYE_5X4QB5dY664-39" value="Skill Badge Earned" style="whiteSpace=wrap;html=1;rounded=1;fontSize=16;" parent="1" vertex="1">
          <mxGeometry x="760" y="768" width="90" height="40" as="geometry" />
        </mxCell>
        <mxCell id="JO0oFXYE_5X4QB5dY664-42" value="End" style="ellipse;whiteSpace=wrap;html=1;fontSize=16;" parent="1" vertex="1">
          <mxGeometry x="740" y="630" width="100" height="60" as="geometry" />
        </mxCell>
        <mxCell id="RY2K-AsEFcUC-tvAOPiG-1" value="6" style="text;html=1;align=center;verticalAlign=middle;resizable=0;points=[];autosize=1;strokeColor=none;fillColor=none;fontSize=16;" vertex="1" parent="1">
          <mxGeometry x="65" y="608" width="30" height="30" as="geometry" />
        </mxCell>
        <mxCell id="RY2K-AsEFcUC-tvAOPiG-2" value="7" style="text;html=1;align=center;verticalAlign=middle;resizable=0;points=[];autosize=1;strokeColor=none;fillColor=none;fontSize=16;" vertex="1" parent="1">
          <mxGeometry x="235" y="608" width="30" height="30" as="geometry" />
        </mxCell>
        <mxCell id="RY2K-AsEFcUC-tvAOPiG-3" value="8" style="text;html=1;align=center;verticalAlign=middle;resizable=0;points=[];autosize=1;strokeColor=none;fillColor=none;fontSize=16;" vertex="1" parent="1">
          <mxGeometry x="65" y="698" width="30" height="30" as="geometry" />
        </mxCell>
        <mxCell id="RY2K-AsEFcUC-tvAOPiG-4" value="9" style="text;html=1;align=center;verticalAlign=middle;resizable=0;points=[];autosize=1;strokeColor=none;fillColor=none;fontSize=16;" vertex="1" parent="1">
          <mxGeometry x="-25" y="688" width="30" height="30" as="geometry" />
        </mxCell>
        <mxCell id="RY2K-AsEFcUC-tvAOPiG-5" value="10" style="text;html=1;align=center;verticalAlign=middle;resizable=0;points=[];autosize=1;strokeColor=none;fillColor=none;fontSize=16;" vertex="1" parent="1">
          <mxGeometry x="190" y="748" width="40" height="30" as="geometry" />
        </mxCell>
        <mxCell id="RY2K-AsEFcUC-tvAOPiG-6" value="11" style="text;html=1;align=center;verticalAlign=middle;resizable=0;points=[];autosize=1;strokeColor=none;fillColor=none;fontSize=16;" vertex="1" parent="1">
          <mxGeometry x="340" y="628" width="40" height="30" as="geometry" />
        </mxCell>
        <mxCell id="RY2K-AsEFcUC-tvAOPiG-7" value="12" style="text;html=1;align=center;verticalAlign=middle;resizable=0;points=[];autosize=1;strokeColor=none;fillColor=none;fontSize=16;" vertex="1" parent="1">
          <mxGeometry x="460" y="628" width="40" height="30" as="geometry" />
        </mxCell>
        <mxCell id="RY2K-AsEFcUC-tvAOPiG-8" value="13" style="text;html=1;align=center;verticalAlign=middle;resizable=0;points=[];autosize=1;strokeColor=none;fillColor=none;fontSize=16;" vertex="1" parent="1">
          <mxGeometry x="590" y="618" width="40" height="30" as="geometry" />
        </mxCell>
        <mxCell id="RY2K-AsEFcUC-tvAOPiG-9" value="14" style="text;html=1;align=center;verticalAlign=middle;resizable=0;points=[];autosize=1;strokeColor=none;fillColor=none;fontSize=16;" vertex="1" parent="1">
          <mxGeometry x="680" y="718" width="40" height="30" as="geometry" />
        </mxCell>
        <mxCell id="RY2K-AsEFcUC-tvAOPiG-10" value="15" style="text;html=1;align=center;verticalAlign=middle;resizable=0;points=[];autosize=1;strokeColor=none;fillColor=none;fontSize=16;" vertex="1" parent="1">
          <mxGeometry x="720" y="808" width="40" height="30" as="geometry" />
        </mxCell>
        <mxCell id="RY2K-AsEFcUC-tvAOPiG-11" value="16" style="text;html=1;align=center;verticalAlign=middle;resizable=0;points=[];autosize=1;strokeColor=none;fillColor=none;fontSize=16;" vertex="1" parent="1">
          <mxGeometry x="800" y="698" width="40" height="30" as="geometry" />
        </mxCell>
        <mxCell id="RY2K-AsEFcUC-tvAOPiG-12" value="17" style="text;html=1;align=center;verticalAlign=middle;resizable=0;points=[];autosize=1;strokeColor=none;fillColor=none;fontSize=16;" vertex="1" parent="1">
          <mxGeometry x="680" y="575" width="40" height="30" as="geometry" />
        </mxCell>
        <mxCell id="RY2K-AsEFcUC-tvAOPiG-13" value="18" style="text;html=1;align=center;verticalAlign=middle;resizable=0;points=[];autosize=1;strokeColor=none;fillColor=none;fontSize=16;" vertex="1" parent="1">
          <mxGeometry x="770" y="568" width="40" height="30" as="geometry" />
        </mxCell>
        <mxCell id="RY2K-AsEFcUC-tvAOPiG-14" value="YES" style="text;html=1;align=center;verticalAlign=middle;resizable=0;points=[];autosize=1;strokeColor=none;fillColor=none;fontSize=16;" vertex="1" parent="1">
          <mxGeometry x="160" y="788" width="60" height="30" as="geometry" />
        </mxCell>
        <mxCell id="RY2K-AsEFcUC-tvAOPiG-15" value="NO" style="text;html=1;align=center;verticalAlign=middle;resizable=0;points=[];autosize=1;strokeColor=none;fillColor=none;fontSize=16;" vertex="1" parent="1">
          <mxGeometry x="-75" y="658" width="50" height="30" as="geometry" />
        </mxCell>
        <mxCell id="RY2K-AsEFcUC-tvAOPiG-16" value="YES" style="text;html=1;align=center;verticalAlign=middle;resizable=0;points=[];autosize=1;strokeColor=none;fillColor=none;fontSize=16;" vertex="1" parent="1">
          <mxGeometry x="610" y="718" width="60" height="30" as="geometry" />
        </mxCell>
        <mxCell id="RY2K-AsEFcUC-tvAOPiG-17" value="NO" style="text;html=1;align=center;verticalAlign=middle;resizable=0;points=[];autosize=1;strokeColor=none;fillColor=none;fontSize=16;" vertex="1" parent="1">
          <mxGeometry x="615" y="588" width="50" height="30" as="geometry" />
        </mxCell>
      </root>
    </mxGraphModel>
  </diagram>
</mxfile>
